<svg width="28" height="24" viewBox="0 0 28 24" fill="none" xmlns="http://www.w3.org/2000/svg">
<path d="M6.07357 0.166992C5.30278 0.166992 4.56357 0.473186 4.01854 1.01821C3.47351 1.56324 3.16732 2.30246 3.16732 3.07324V12.7607C3.16732 13.5315 3.47351 14.2707 4.01854 14.8158C4.56357 15.3608 5.30278 15.667 6.07357 15.667H18.7319C18.1843 15.1307 17.7821 14.464 17.5629 13.7295H6.07357C5.81664 13.7295 5.57023 13.6274 5.38856 13.4458C5.20688 13.2641 5.10482 13.0177 5.10482 12.7607V3.07324C5.10482 2.81631 5.20688 2.56991 5.38856 2.38823C5.57023 2.20656 5.81664 2.10449 6.07357 2.10449H20.9277C21.1847 2.10449 21.4311 2.20656 21.6127 2.38823C21.7944 2.56991 21.8965 2.81631 21.8965 3.07324V7.91699C22.5901 7.91699 23.2463 8.07199 23.834 8.35228V3.07324C23.834 2.69159 23.7588 2.31367 23.6128 1.96107C23.4667 1.60847 23.2526 1.28808 22.9828 1.01821C22.7129 0.748343 22.3925 0.53427 22.0399 0.388217C21.6873 0.242164 21.3094 0.166992 20.9277 0.166992H6.07357ZM1.55273 17.6045H15.1902C14.9277 18.1123 14.7913 18.6758 14.7923 19.2475V19.3805C14.7923 19.4348 14.7932 19.4886 14.7949 19.542H1.55273C1.29581 19.542 1.0494 19.4399 0.867725 19.2583C0.686049 19.0766 0.583984 18.8302 0.583984 18.5732C0.583984 18.3163 0.686049 18.0699 0.867725 17.8882C1.0494 17.7066 1.29581 17.6045 1.55273 17.6045ZM25.1257 12.4378C25.1257 13.2943 24.7854 14.1156 24.1798 14.7212C23.5743 15.3268 22.7529 15.667 21.8965 15.667C21.0401 15.667 20.2187 15.3268 19.6131 14.7212C19.0075 14.1156 18.6673 13.2943 18.6673 12.4378C18.6673 11.5814 19.0075 10.76 19.6131 10.1545C20.2187 9.54887 21.0401 9.20866 21.8965 9.20866C22.7529 9.20866 23.5743 9.54887 24.1798 10.1545C24.7854 10.76 25.1257 11.5814 25.1257 12.4378ZM27.709 19.3805C27.709 21.3904 26.0479 23.417 21.8965 23.417C17.7451 23.417 16.084 21.3981 16.084 19.3805V19.2475C16.084 17.9817 17.1096 16.9587 18.3741 16.9587H25.4189C26.6847 16.9587 27.709 17.9829 27.709 19.2475V19.3805Z" fill="#2A77AB"/>
</svg>
