<svg width="28" height="18" viewBox="0 0 28 18" fill="none" xmlns="http://www.w3.org/2000/svg">
<path fill-rule="evenodd" clip-rule="evenodd" d="M12.5697 3.22653C13.4964 2.90224 14.5057 2.90224 15.4324 3.22653L24.307 6.3332L15.4324 9.43986C14.5057 9.76415 13.4964 9.76415 12.5697 9.43986L7.93905 7.81853C8.63225 7.67134 9.32695 7.53133 10.023 7.39853C11.2873 7.15619 12.5541 6.92685 13.823 6.71053L14.0764 6.66786L14.1644 6.6532C14.4261 6.6097 14.6597 6.46403 14.814 6.24824C14.9683 6.03245 15.0305 5.76421 14.987 5.50253C14.9436 5.24085 14.7979 5.00716 14.5821 4.85288C14.3663 4.6986 14.0981 4.63637 13.8364 4.67986L13.743 4.69586L13.4857 4.73986C12.2034 4.95858 10.9234 5.19015 9.64571 5.43453C8.55638 5.64386 7.41638 5.87586 6.46038 6.09853C5.73905 6.26786 5.03638 6.4492 4.54838 6.63186L3.69371 6.3332L12.5697 3.22653ZM2.77238 8.1292L1.77505 7.77986C0.405714 7.3012 0.405714 5.3652 1.77505 4.88653L11.9084 1.33986C13.2628 0.865879 14.738 0.865879 16.0924 1.33986L26.2257 4.88653C27.595 5.3652 27.595 7.3012 26.2257 7.77986L21.719 9.35719L22.255 13.6439C22.3012 13.9897 22.2561 14.3416 22.1242 14.6646C21.9922 14.9877 21.7781 15.2705 21.503 15.4852C19.3462 17.1247 16.7096 18.0084 14.0004 17.9999C10.7377 17.9999 8.15505 16.6199 6.58305 15.5119C6.28479 15.2988 6.04989 15.0088 5.90338 14.6728C5.75687 14.3368 5.70422 13.9674 5.75105 13.6039L6.28171 9.35719L4.74305 8.81853C4.55431 8.99978 4.42309 9.23256 4.36571 9.48786C4.4813 9.62901 4.56669 9.79237 4.6166 9.96784C4.66652 10.1433 4.67989 10.3272 4.65589 10.508C4.6319 10.6889 4.57104 10.8629 4.4771 11.0193C4.38315 11.1756 4.25811 11.3111 4.10971 11.4172L4.11505 11.4412L5.28171 16.6932C5.30765 16.81 5.30703 16.9312 5.27991 17.0478C5.25278 17.1644 5.19985 17.2734 5.125 17.3668C5.05014 17.4602 4.95529 17.5356 4.84742 17.5875C4.73954 17.6394 4.62141 17.6664 4.50171 17.6665H2.16705C2.04724 17.6666 1.92895 17.6397 1.82091 17.5879C1.71287 17.5361 1.61785 17.4608 1.54285 17.3673C1.46785 17.2739 1.41479 17.1648 1.3876 17.0481C1.3604 16.9315 1.35976 16.8102 1.38571 16.6932L2.55238 11.4399L2.55905 11.4172C2.40598 11.3077 2.27783 11.167 2.18303 11.0044C2.08824 10.8418 2.02894 10.661 2.00904 10.4738C1.98914 10.2866 2.00909 10.0974 2.06757 9.9185C2.12606 9.73961 2.22176 9.57512 2.34838 9.43586C2.35282 9.3932 2.35905 9.34653 2.36705 9.29586C2.43124 8.88585 2.56852 8.49069 2.77238 8.1292ZM8.21238 10.0332L7.73505 13.8519C7.73416 13.8661 7.73505 13.875 7.73771 13.8785C9.12971 14.8599 11.3084 15.9999 14.0004 15.9999C16.751 15.9999 18.907 14.9545 20.271 13.9092V13.8919L19.7884 10.0332L16.0924 11.3265C14.738 11.8005 13.2628 11.8005 11.9084 11.3265L8.21238 10.0332Z" fill="#2A77AB"/>
</svg>
