<svg width="24" height="23" viewBox="0 0 24 23" fill="none" xmlns="http://www.w3.org/2000/svg">
<path fill-rule="evenodd" clip-rule="evenodd" d="M10.8 0C9.84522 0 8.92955 0.403868 8.25442 1.12276C7.57928 1.84165 7.2 2.81667 7.2 3.83333V5.11111H3.6C2.64522 5.11111 1.72955 5.51498 1.05442 6.23387C0.379285 6.95276 0 7.92778 0 8.94444V19.1667C0 20.1833 0.379285 21.1584 1.05442 21.8772C1.72955 22.5961 2.64522 23 3.6 23H20.4C21.3548 23 22.2705 22.5961 22.9456 21.8772C23.6207 21.1584 24 20.1833 24 19.1667V8.94444C24 7.92778 23.6207 6.95276 22.9456 6.23387C22.2705 5.51498 21.3548 5.11111 20.4 5.11111H16.8V3.83333C16.8 2.81667 16.4207 1.84165 15.7456 1.12276C15.0705 0.403868 14.1548 0 13.2 0H10.8ZM14.4 5.11111H9.6V3.83333C9.6 3.49445 9.72643 3.16944 9.95147 2.92981C10.1765 2.69018 10.4817 2.55556 10.8 2.55556H13.2C13.5183 2.55556 13.8235 2.69018 14.0485 2.92981C14.2736 3.16944 14.4 3.49445 14.4 3.83333V5.11111Z" fill="#2A77AB"/>
</svg>
