<svg width="21" height="21" viewBox="0 0 21 21" fill="none" xmlns="http://www.w3.org/2000/svg">
<path d="M1.69727 10.285C1.69727 7.09224 1.69727 5.49544 2.68996 4.504C3.68266 3.51257 5.27928 3.51172 8.47337 3.51172H11.8614C15.0555 3.51172 16.653 3.51172 17.6448 4.504C18.6367 5.49629 18.6375 7.09224 18.6375 10.285V11.9783C18.6375 15.1711 18.6375 16.7679 17.6448 17.7593C16.6521 18.7507 15.0555 18.7516 11.8614 18.7516H8.47337C5.27928 18.7516 3.68182 18.7516 2.68996 17.7593C1.69811 16.767 1.69727 15.1711 1.69727 11.9783V10.285Z" stroke="#FF960D" stroke-width="1.12888"/>
<path opacity="0.5" d="M5.9307 3.50925V2.23926M14.4008 3.50925V2.23926M2.11914 7.74254H18.2124" stroke="#FF960D" stroke-width="1.12888" stroke-linecap="round"/>
<path d="M15.2481 14.5145C15.2481 14.7391 15.1589 14.9544 15.0001 15.1132C14.8412 15.272 14.6258 15.3612 14.4011 15.3612C14.1765 15.3612 13.961 15.272 13.8022 15.1132C13.6434 14.9544 13.5541 14.7391 13.5541 14.5145C13.5541 14.29 13.6434 14.0746 13.8022 13.9159C13.961 13.7571 14.1765 13.6679 14.4011 13.6679C14.6258 13.6679 14.8412 13.7571 15.0001 13.9159C15.1589 14.0746 15.2481 14.29 15.2481 14.5145ZM15.2481 11.1279C15.2481 11.3525 15.1589 11.5678 15.0001 11.7266C14.8412 11.8854 14.6258 11.9746 14.4011 11.9746C14.1765 11.9746 13.961 11.8854 13.8022 11.7266C13.6434 11.5678 13.5541 11.3525 13.5541 11.1279C13.5541 10.9034 13.6434 10.688 13.8022 10.5292C13.961 10.3705 14.1765 10.2812 14.4011 10.2812C14.6258 10.2812 14.8412 10.3705 15.0001 10.5292C15.1589 10.688 15.2481 10.9034 15.2481 11.1279ZM11.0131 14.5145C11.0131 14.7391 10.9238 14.9544 10.765 15.1132C10.6061 15.272 10.3907 15.3612 10.1661 15.3612C9.94142 15.3612 9.72598 15.272 9.56713 15.1132C9.40829 14.9544 9.31905 14.7391 9.31905 14.5145C9.31905 14.29 9.40829 14.0746 9.56713 13.9159C9.72598 13.7571 9.94142 13.6679 10.1661 13.6679C10.3907 13.6679 10.6061 13.7571 10.765 13.9159C10.9238 14.0746 11.0131 14.29 11.0131 14.5145ZM11.0131 11.1279C11.0131 11.3525 10.9238 11.5678 10.765 11.7266C10.6061 11.8854 10.3907 11.9746 10.1661 11.9746C9.94142 11.9746 9.72598 11.8854 9.56713 11.7266C9.40829 11.5678 9.31905 11.3525 9.31905 11.1279C9.31905 10.9034 9.40829 10.688 9.56713 10.5292C9.72598 10.3705 9.94142 10.2812 10.1661 10.2812C10.3907 10.2812 10.6061 10.3705 10.765 10.5292C10.9238 10.688 11.0131 10.9034 11.0131 11.1279ZM6.77801 14.5145C6.77801 14.7391 6.68877 14.9544 6.52993 15.1132C6.37108 15.272 6.15564 15.3612 5.931 15.3612C5.70636 15.3612 5.49091 15.272 5.33207 15.1132C5.17322 14.9544 5.08398 14.7391 5.08398 14.5145C5.08398 14.29 5.17322 14.0746 5.33207 13.9159C5.49091 13.7571 5.70636 13.6679 5.931 13.6679C6.15564 13.6679 6.37108 13.7571 6.52993 13.9159C6.68877 14.0746 6.77801 14.29 6.77801 14.5145ZM6.77801 11.1279C6.77801 11.3525 6.68877 11.5678 6.52993 11.7266C6.37108 11.8854 6.15564 11.9746 5.931 11.9746C5.70636 11.9746 5.49091 11.8854 5.33207 11.7266C5.17322 11.5678 5.08398 11.3525 5.08398 11.1279C5.08398 10.9034 5.17322 10.688 5.33207 10.5292C5.49091 10.3705 5.70636 10.2812 5.931 10.2812C6.15564 10.2812 6.37108 10.3705 6.52993 10.5292C6.68877 10.688 6.77801 10.9034 6.77801 11.1279Z" fill="#FF960D"/>
</svg>
