<svg width="23" height="23" viewBox="0 0 23 23" fill="none" xmlns="http://www.w3.org/2000/svg">
<path d="M11.9642 10.1629C11.5127 10.05 11.0611 9.82423 10.7224 9.48556C10.3838 9.37267 10.2709 9.03401 10.2709 8.80824C10.2709 8.58246 10.3838 8.2438 10.6096 8.13091C10.9482 7.90513 11.2869 7.67936 11.6255 7.79225C12.3029 7.79225 12.8673 8.13091 13.206 8.58246L14.222 7.22781C13.8833 6.88914 13.5446 6.66337 13.206 6.43759C12.8673 6.21182 12.4158 6.09893 11.9642 6.09893V4.5185H10.6096V6.09893C10.0451 6.21182 9.48068 6.55048 9.02913 7.00203C8.57758 7.56647 8.23891 8.2438 8.3518 8.92112C8.3518 9.59845 8.57758 10.2758 9.02913 10.7273C9.59357 11.2918 10.3838 11.6304 11.0611 11.9691C11.3998 12.082 11.8513 12.3078 12.19 12.5335C12.4158 12.7593 12.5287 13.098 12.5287 13.4366C12.5287 13.7753 12.4158 14.114 12.19 14.4526C11.8513 14.7913 11.3998 14.9042 11.0611 14.9042C10.6096 14.9042 10.0451 14.7913 9.70646 14.4526C9.36779 14.2269 9.02913 13.8882 8.80335 13.5495L7.67448 14.7913C8.01314 15.2428 8.3518 15.5815 8.80335 15.9202C9.36779 16.2588 10.0451 16.5975 10.7224 16.5975V18.065H11.9642V16.3717C12.6415 16.2588 13.206 15.9202 13.6575 15.4686C14.222 14.9042 14.5606 14.0011 14.5606 13.2109C14.5606 12.5335 14.3349 11.7433 13.7704 11.2918C13.206 10.7273 12.6415 10.3887 11.9642 10.1629ZM11.2869 2.26074C6.31982 2.26074 2.25586 6.3247 2.25586 11.2918C2.25586 16.2588 6.31982 20.3228 11.2869 20.3228C16.2539 20.3228 20.3179 16.2588 20.3179 11.2918C20.3179 6.3247 16.2539 2.26074 11.2869 2.26074ZM11.2869 19.081C6.99715 19.081 3.49763 15.5815 3.49763 11.2918C3.49763 7.00203 6.99715 3.50251 11.2869 3.50251C15.5766 3.50251 19.0761 7.00203 19.0761 11.2918C19.0761 15.5815 15.5766 19.081 11.2869 19.081Z" fill="#FF960D"/>
</svg>
