<svg width="510" height="399" viewBox="0 0 510 399" fill="none" xmlns="http://www.w3.org/2000/svg">
<path fill-rule="evenodd" clip-rule="evenodd" d="M233.761 35.3549C266.474 36.8963 294.707 3.33056 326.44 10.1503C356.793 16.6733 370.027 47.1855 388.187 68.542C404.329 87.5256 410.198 111.347 427.826 129.383C450.352 152.43 494.551 160.907 506.007 189.088C516.714 215.427 504.6 247.485 484.965 269.943C464.738 293.078 420.713 292.516 397.288 313.436C376.83 331.706 383.385 365.161 360.396 381.191C337.93 396.855 304.949 396.25 275.785 398.152C247.962 399.967 219.652 399.263 193.09 392.104C167.503 385.208 149.879 365.349 124.717 357.436C93.5692 347.64 49.8218 361.103 27.9126 340.159C6.74525 319.924 28.0018 286.867 23.1033 260.297C18.7708 236.798 -4.01647 215.577 0.618749 192.118C5.29363 168.458 33.5303 153.524 48.2653 132.951C62.0237 113.741 72.1078 93.4732 85.2436 73.9609C101.932 49.171 104.457 9.66702 136.946 1.2219C170.677 -7.54635 198.493 33.6932 233.761 35.3549Z" fill="#FF7D03"/>
</svg>
