<svg width="531" height="506" viewBox="0 0 531 506" fill="none" xmlns="http://www.w3.org/2000/svg">
<path fill-rule="evenodd" clip-rule="evenodd" d="M272.631 3.58034C309.109 3.1937 347.038 -6.7801 380.603 8.35548C414.46 23.6225 435.016 58.9195 459.625 87.9012C485.441 118.305 521.888 143.681 529.546 183.763C537.207 223.864 512.7 262.189 500.328 300.947C488.948 336.602 478.231 371.761 459.36 403.65C439.072 437.934 420.627 478.258 385.704 494.643C350.79 511.024 310.795 489.931 272.631 491.261C233.087 492.639 193.98 514.096 155.917 502.653C116.649 490.848 80.5587 463.2 58.4265 426.864C36.6633 391.133 43.9739 344.794 34.5841 303.45C25.0801 261.603 -9.47545 221.696 2.48818 180.564C14.6456 138.766 65.5375 126.454 94.982 95.7961C120.758 68.9583 133.241 27.4798 165.695 10.6334C198.174 -6.226 236.465 3.96367 272.631 3.58034Z" fill="#FF7D03"/>
</svg>
